<mxfile host="app.diagrams.net" agent="Mozilla/5.0 (Windows NT 10.0; Win64; x64; rv:138.0) Gecko/20100101 Firefox/138.0" version="27.0.6">
  <diagram name="Page-1" id="VNVmdty35dv7ZaUX3Ccb">
    <mxGraphModel dx="1213" dy="826" grid="1" gridSize="10" guides="1" tooltips="1" connect="1" arrows="1" fold="1" page="1" pageScale="1" pageWidth="1000" pageHeight="1000" math="0" shadow="0">
      <root>
        <mxCell id="0" />
        <mxCell id="1" parent="0" />
        <mxCell id="AHdsUdjB6xAize_xMFfI-1" value="" style="rounded=1;whiteSpace=wrap;html=1;" vertex="1" parent="1">
          <mxGeometry x="80" y="180" width="40" height="60" as="geometry" />
        </mxCell>
        <mxCell id="AHdsUdjB6xAize_xMFfI-2" value="" style="rounded=1;whiteSpace=wrap;html=1;" vertex="1" parent="1">
          <mxGeometry x="280" y="180" width="40" height="60" as="geometry" />
        </mxCell>
        <mxCell id="AHdsUdjB6xAize_xMFfI-3" style="edgeStyle=orthogonalEdgeStyle;rounded=0;orthogonalLoop=1;jettySize=auto;html=1;exitX=1;exitY=1;exitDx=0;exitDy=0;entryX=0.75;entryY=1;entryDx=0;entryDy=0;" edge="1" parent="1" source="AHdsUdjB6xAize_xMFfI-2" target="AHdsUdjB6xAize_xMFfI-2">
          <mxGeometry relative="1" as="geometry" />
        </mxCell>
        <mxCell id="AHdsUdjB6xAize_xMFfI-4" value="" style="rounded=1;whiteSpace=wrap;html=1;" vertex="1" parent="1">
          <mxGeometry x="480" y="180" width="40" height="60" as="geometry" />
        </mxCell>
        <mxCell id="AHdsUdjB6xAize_xMFfI-5" value="" style="rounded=1;whiteSpace=wrap;html=1;" vertex="1" parent="1">
          <mxGeometry x="680" y="180" width="40" height="60" as="geometry" />
        </mxCell>
        <mxCell id="AHdsUdjB6xAize_xMFfI-6" value="" style="rounded=1;whiteSpace=wrap;html=1;" vertex="1" parent="1">
          <mxGeometry x="880" y="180" width="40" height="60" as="geometry" />
        </mxCell>
        <mxCell id="AHdsUdjB6xAize_xMFfI-8" value="" style="endArrow=none;html=1;strokeWidth=2;rounded=0;" edge="1" parent="1">
          <mxGeometry width="50" height="50" relative="1" as="geometry">
            <mxPoint x="300" y="400" as="sourcePoint" />
            <mxPoint x="299.5" y="240" as="targetPoint" />
          </mxGeometry>
        </mxCell>
        <mxCell id="AHdsUdjB6xAize_xMFfI-9" value="" style="endArrow=none;html=1;strokeWidth=2;rounded=0;" edge="1" parent="1">
          <mxGeometry width="50" height="50" relative="1" as="geometry">
            <mxPoint x="100" y="400" as="sourcePoint" />
            <mxPoint x="99.5" y="240" as="targetPoint" />
          </mxGeometry>
        </mxCell>
        <mxCell id="AHdsUdjB6xAize_xMFfI-10" value="" style="endArrow=none;html=1;strokeWidth=2;rounded=0;" edge="1" parent="1">
          <mxGeometry width="50" height="50" relative="1" as="geometry">
            <mxPoint x="500" y="400" as="sourcePoint" />
            <mxPoint x="499.5" y="240" as="targetPoint" />
          </mxGeometry>
        </mxCell>
        <mxCell id="AHdsUdjB6xAize_xMFfI-11" value="" style="endArrow=none;html=1;strokeWidth=2;rounded=0;" edge="1" parent="1">
          <mxGeometry width="50" height="50" relative="1" as="geometry">
            <mxPoint x="700" y="400" as="sourcePoint" />
            <mxPoint x="699.5" y="240" as="targetPoint" />
          </mxGeometry>
        </mxCell>
        <mxCell id="AHdsUdjB6xAize_xMFfI-12" value="" style="endArrow=none;html=1;strokeWidth=2;rounded=0;" edge="1" parent="1">
          <mxGeometry width="50" height="50" relative="1" as="geometry">
            <mxPoint x="900" y="400" as="sourcePoint" />
            <mxPoint x="899.5" y="240" as="targetPoint" />
          </mxGeometry>
        </mxCell>
        <mxCell id="AHdsUdjB6xAize_xMFfI-13" value="1" style="text;strokeColor=none;align=center;fillColor=none;html=1;verticalAlign=middle;whiteSpace=wrap;rounded=0;" vertex="1" parent="1">
          <mxGeometry x="70" y="195" width="60" height="30" as="geometry" />
        </mxCell>
        <mxCell id="AHdsUdjB6xAize_xMFfI-14" value="&lt;div&gt;2&lt;/div&gt;" style="text;strokeColor=none;align=center;fillColor=none;html=1;verticalAlign=middle;whiteSpace=wrap;rounded=0;" vertex="1" parent="1">
          <mxGeometry x="270" y="195" width="60" height="30" as="geometry" />
        </mxCell>
        <mxCell id="AHdsUdjB6xAize_xMFfI-15" value="&lt;div&gt;3&lt;/div&gt;" style="text;strokeColor=none;align=center;fillColor=none;html=1;verticalAlign=middle;whiteSpace=wrap;rounded=0;" vertex="1" parent="1">
          <mxGeometry x="470" y="195" width="60" height="30" as="geometry" />
        </mxCell>
        <mxCell id="AHdsUdjB6xAize_xMFfI-16" value="&lt;div&gt;4&lt;/div&gt;" style="text;strokeColor=none;align=center;fillColor=none;html=1;verticalAlign=middle;whiteSpace=wrap;rounded=0;" vertex="1" parent="1">
          <mxGeometry x="670" y="195" width="60" height="30" as="geometry" />
        </mxCell>
        <mxCell id="AHdsUdjB6xAize_xMFfI-17" value="&lt;div&gt;5&lt;/div&gt;" style="text;strokeColor=none;align=center;fillColor=none;html=1;verticalAlign=middle;whiteSpace=wrap;rounded=0;" vertex="1" parent="1">
          <mxGeometry x="870" y="195" width="60" height="30" as="geometry" />
        </mxCell>
        <mxCell id="AHdsUdjB6xAize_xMFfI-21" value="" style="endArrow=none;html=1;rounded=0;" edge="1" parent="1">
          <mxGeometry width="50" height="50" relative="1" as="geometry">
            <mxPoint x="280" y="400.00428571428563" as="sourcePoint" />
            <mxPoint x="900" y="400.89" as="targetPoint" />
          </mxGeometry>
        </mxCell>
        <mxCell id="AHdsUdjB6xAize_xMFfI-26" value="&lt;div&gt;1280x720&lt;/div&gt;" style="text;strokeColor=none;align=center;fillColor=none;html=1;verticalAlign=middle;whiteSpace=wrap;rounded=0;" vertex="1" parent="1">
          <mxGeometry x="120" y="195" width="60" height="30" as="geometry" />
        </mxCell>
        <mxCell id="AHdsUdjB6xAize_xMFfI-27" value="&lt;div&gt;1280x720&lt;/div&gt;" style="text;strokeColor=none;align=center;fillColor=none;html=1;verticalAlign=middle;whiteSpace=wrap;rounded=0;" vertex="1" parent="1">
          <mxGeometry x="320" y="195" width="60" height="30" as="geometry" />
        </mxCell>
        <mxCell id="AHdsUdjB6xAize_xMFfI-28" value="&lt;div&gt;1280x720&lt;/div&gt;" style="text;strokeColor=none;align=center;fillColor=none;html=1;verticalAlign=middle;whiteSpace=wrap;rounded=0;" vertex="1" parent="1">
          <mxGeometry x="520" y="195" width="60" height="30" as="geometry" />
        </mxCell>
        <mxCell id="AHdsUdjB6xAize_xMFfI-29" value="&lt;div&gt;1280x720&lt;/div&gt;" style="text;strokeColor=none;align=center;fillColor=none;html=1;verticalAlign=middle;whiteSpace=wrap;rounded=0;" vertex="1" parent="1">
          <mxGeometry x="720" y="195" width="60" height="30" as="geometry" />
        </mxCell>
        <mxCell id="AHdsUdjB6xAize_xMFfI-30" value="&lt;div&gt;1280x720&lt;/div&gt;" style="text;strokeColor=none;align=center;fillColor=none;html=1;verticalAlign=middle;whiteSpace=wrap;rounded=0;" vertex="1" parent="1">
          <mxGeometry x="920" y="195" width="60" height="30" as="geometry" />
        </mxCell>
        <mxCell id="AHdsUdjB6xAize_xMFfI-31" value="" style="shape=flexArrow;endArrow=classic;html=1;rounded=0;endWidth=14;endSize=4.33;" edge="1" parent="1">
          <mxGeometry width="50" height="50" relative="1" as="geometry">
            <mxPoint x="299.5" y="360" as="sourcePoint" />
            <mxPoint x="299.5" y="320" as="targetPoint" />
          </mxGeometry>
        </mxCell>
        <mxCell id="AHdsUdjB6xAize_xMFfI-32" value="" style="shape=flexArrow;endArrow=classic;html=1;rounded=0;endWidth=14;endSize=4.33;" edge="1" parent="1">
          <mxGeometry width="50" height="50" relative="1" as="geometry">
            <mxPoint x="99.5" y="360" as="sourcePoint" />
            <mxPoint x="99.5" y="320" as="targetPoint" />
          </mxGeometry>
        </mxCell>
        <mxCell id="AHdsUdjB6xAize_xMFfI-33" value="" style="shape=flexArrow;endArrow=classic;html=1;rounded=0;endWidth=14;endSize=4.33;" edge="1" parent="1">
          <mxGeometry width="50" height="50" relative="1" as="geometry">
            <mxPoint x="500" y="360" as="sourcePoint" />
            <mxPoint x="500" y="320" as="targetPoint" />
          </mxGeometry>
        </mxCell>
        <mxCell id="AHdsUdjB6xAize_xMFfI-34" value="" style="shape=flexArrow;endArrow=classic;html=1;rounded=0;endWidth=14;endSize=4.33;" edge="1" parent="1">
          <mxGeometry width="50" height="50" relative="1" as="geometry">
            <mxPoint x="699.5" y="360" as="sourcePoint" />
            <mxPoint x="699.5" y="320" as="targetPoint" />
          </mxGeometry>
        </mxCell>
        <mxCell id="AHdsUdjB6xAize_xMFfI-35" value="" style="shape=flexArrow;endArrow=classic;html=1;rounded=0;endWidth=14;endSize=4.33;" edge="1" parent="1">
          <mxGeometry width="50" height="50" relative="1" as="geometry">
            <mxPoint x="899.5" y="360" as="sourcePoint" />
            <mxPoint x="899.5" y="320" as="targetPoint" />
          </mxGeometry>
        </mxCell>
        <mxCell id="AHdsUdjB6xAize_xMFfI-37" value="" style="endArrow=none;html=1;rounded=0;" edge="1" parent="1" target="AHdsUdjB6xAize_xMFfI-36">
          <mxGeometry width="50" height="50" relative="1" as="geometry">
            <mxPoint y="500" as="sourcePoint" />
            <mxPoint x="900" y="500" as="targetPoint" />
            <Array as="points">
              <mxPoint x="40" y="400" />
            </Array>
          </mxGeometry>
        </mxCell>
        <mxCell id="AHdsUdjB6xAize_xMFfI-36" value="&lt;div&gt;Ethernet Connection 2x,&lt;/div&gt;&lt;div&gt;Power Connection&lt;/div&gt;&lt;div&gt;&lt;br&gt;&lt;/div&gt;" style="text;strokeColor=default;align=center;fillColor=none;html=1;verticalAlign=middle;whiteSpace=wrap;rounded=0;dashed=1;strokeWidth=1;" vertex="1" parent="1">
          <mxGeometry x="120" y="360" width="160" height="82" as="geometry" />
        </mxCell>
        <mxCell id="AHdsUdjB6xAize_xMFfI-38" value="" style="shape=mxgraph.arrows2.wedgeArrowDashed2;html=1;bendable=0;startWidth=50;stepSize=15;rounded=0;" edge="1" parent="1">
          <mxGeometry width="100" height="100" relative="1" as="geometry">
            <mxPoint x="440" y="290" as="sourcePoint" />
            <mxPoint x="480" y="240" as="targetPoint" />
          </mxGeometry>
        </mxCell>
        <mxCell id="AHdsUdjB6xAize_xMFfI-39" value="" style="shape=mxgraph.arrows2.wedgeArrowDashed2;html=1;bendable=0;startWidth=50;stepSize=15;rounded=0;" edge="1" parent="1">
          <mxGeometry width="100" height="100" relative="1" as="geometry">
            <mxPoint x="640" y="290" as="sourcePoint" />
            <mxPoint x="680" y="240" as="targetPoint" />
          </mxGeometry>
        </mxCell>
        <mxCell id="AHdsUdjB6xAize_xMFfI-40" value="" style="shape=mxgraph.arrows2.wedgeArrowDashed2;html=1;bendable=0;startWidth=50;stepSize=15;rounded=0;" edge="1" parent="1">
          <mxGeometry width="100" height="100" relative="1" as="geometry">
            <mxPoint x="840" y="290" as="sourcePoint" />
            <mxPoint x="880" y="240" as="targetPoint" />
          </mxGeometry>
        </mxCell>
        <mxCell id="AHdsUdjB6xAize_xMFfI-41" value="" style="shape=mxgraph.arrows2.wedgeArrowDashed2;html=1;bendable=0;startWidth=50;stepSize=15;rounded=0;" edge="1" parent="1">
          <mxGeometry width="100" height="100" relative="1" as="geometry">
            <mxPoint x="240" y="290" as="sourcePoint" />
            <mxPoint x="280" y="240" as="targetPoint" />
          </mxGeometry>
        </mxCell>
        <mxCell id="AHdsUdjB6xAize_xMFfI-42" value="" style="shape=mxgraph.arrows2.wedgeArrowDashed2;html=1;bendable=0;startWidth=50;stepSize=15;rounded=0;" edge="1" parent="1">
          <mxGeometry width="100" height="100" relative="1" as="geometry">
            <mxPoint x="40" y="290" as="sourcePoint" />
            <mxPoint x="80" y="240" as="targetPoint" />
          </mxGeometry>
        </mxCell>
        <mxCell id="AHdsUdjB6xAize_xMFfI-43" value="&lt;div&gt;Wireless Extron DTP Receiver,&lt;/div&gt;&lt;div&gt;1280x720p,&lt;/div&gt;&lt;div&gt;x5&lt;/div&gt;" style="text;strokeColor=default;align=center;fillColor=none;html=1;verticalAlign=middle;whiteSpace=wrap;rounded=0;" vertex="1" parent="1">
          <mxGeometry x="330" y="290" width="110" height="60" as="geometry" />
        </mxCell>
        <mxCell id="AHdsUdjB6xAize_xMFfI-47" value="" style="rounded=0;whiteSpace=wrap;html=1;glass=0;shadow=0;" vertex="1" parent="1">
          <mxGeometry x="560" width="440" height="160" as="geometry" />
        </mxCell>
        <mxCell id="AHdsUdjB6xAize_xMFfI-48" value="" style="rounded=0;whiteSpace=wrap;html=1;" vertex="1" parent="1">
          <mxGeometry x="745" y="50" width="70" height="40" as="geometry" />
        </mxCell>
        <mxCell id="AHdsUdjB6xAize_xMFfI-49" value="&lt;div&gt;Extron DTP Receiver&lt;/div&gt;&lt;div&gt;Mounted to Each Projector 1-5&lt;/div&gt;" style="text;strokeColor=none;align=center;fillColor=none;html=1;verticalAlign=middle;whiteSpace=wrap;rounded=0;" vertex="1" parent="1">
          <mxGeometry x="560" width="170" height="30" as="geometry" />
        </mxCell>
      </root>
    </mxGraphModel>
  </diagram>
</mxfile>
